<svg width="16" height="16" viewBox="0 0 16 16" fill="none" xmlns="http://www.w3.org/2000/svg">
<path fill-rule="evenodd" clip-rule="evenodd" d="M1.33341 2C1.7016 2 2.00008 2.29848 2.00008 2.66667V12C2.00008 12.3682 2.29856 12.6667 2.66675 12.6667H14.6667C15.0349 12.6667 15.3334 12.9651 15.3334 13.3333C15.3334 13.7015 15.0349 14 14.6667 14H2.66675C1.56218 14 0.666748 13.1046 0.666748 12V2.66667C0.666748 2.29848 0.965225 2 1.33341 2Z" fill="#A7B1BC"/>
<path d="M11.9999 3.33331C11.6317 3.33331 11.3333 3.63179 11.3333 3.99998V10.6666C11.3333 11.0348 11.6317 11.3333 11.9999 11.3333C12.3681 11.3333 12.6666 11.0348 12.6666 10.6666V3.99998C12.6666 3.63179 12.3681 3.33331 11.9999 3.33331Z" fill="#A7B1BC"/>
<path d="M6.66659 4.66665C6.2984 4.66665 5.99992 4.96512 5.99992 5.33331V10.6666C5.99992 11.0348 6.2984 11.3333 6.66659 11.3333C7.03478 11.3333 7.33325 11.0348 7.33325 10.6666V5.33331C7.33325 4.96512 7.03478 4.66665 6.66659 4.66665Z" fill="#A7B1BC"/>
<path d="M3.99992 8.66665C3.63173 8.66665 3.33325 8.96512 3.33325 9.33331V10.6666C3.33325 11.0348 3.63173 11.3333 3.99992 11.3333C4.36811 11.3333 4.66659 11.0348 4.66659 10.6666V9.33331C4.66659 8.96512 4.36811 8.66665 3.99992 8.66665Z" fill="#A7B1BC"/>
<path d="M8.66659 6.66665C8.66659 6.29846 8.96506 5.99998 9.33325 5.99998C9.70144 5.99998 9.99992 6.29846 9.99992 6.66665V10.6666C9.99992 11.0348 9.70144 11.3333 9.33325 11.3333C8.96506 11.3333 8.66659 11.0348 8.66659 10.6666V6.66665Z" fill="#A7B1BC"/>
</svg>
