<svg width="16" height="16" viewBox="0 0 16 16" fill="none" xmlns="http://www.w3.org/2000/svg">
<path fill-rule="evenodd" clip-rule="evenodd" d="M7.99992 13.3333C10.9454 13.3333 13.3333 10.9455 13.3333 7.99998C13.3333 5.05446 10.9454 2.66665 7.99992 2.66665C5.0544 2.66665 2.66659 5.05446 2.66659 7.99998C2.66659 10.9455 5.0544 13.3333 7.99992 13.3333ZM7.99992 14.6666C11.6818 14.6666 14.6666 11.6819 14.6666 7.99998C14.6666 4.31808 11.6818 1.33331 7.99992 1.33331C4.31802 1.33331 1.33325 4.31808 1.33325 7.99998C1.33325 11.6819 4.31802 14.6666 7.99992 14.6666Z" fill="#A7B1BC"/>
<path fill-rule="evenodd" clip-rule="evenodd" d="M7.99992 4C8.36811 4 8.66659 4.29848 8.66659 4.66667V7.72386L10.138 9.19526C10.3983 9.45561 10.3983 9.87772 10.138 10.1381C9.87764 10.3984 9.45553 10.3984 9.19518 10.1381L7.52851 8.4714C7.40349 8.34638 7.33325 8.17681 7.33325 8V4.66667C7.33325 4.29848 7.63173 4 7.99992 4Z" fill="#A7B1BC"/>
</svg>
