<svg width="16" height="16" viewBox="0 0 16 16" fill="none" xmlns="http://www.w3.org/2000/svg">
<path d="M11.2467 12.7067H5.91341C3.80008 12.7067 2.08008 10.9867 2.08008 8.87337C2.08008 6.76004 3.80008 5.04004 5.91341 5.04004H13.2467C13.5201 5.04004 13.7467 5.26671 13.7467 5.54004C13.7467 5.81337 13.5201 6.04004 13.2467 6.04004H5.91341C4.35341 6.04004 3.08008 7.31337 3.08008 8.87337C3.08008 10.4334 4.35341 11.7067 5.91341 11.7067H11.2467C11.5201 11.7067 11.7467 11.9334 11.7467 12.2067C11.7467 12.48 11.5267 12.7067 11.2467 12.7067Z" fill="#393D41"/>
<path d="M11.7134 7.70671C11.5868 7.70671 11.4601 7.66004 11.3601 7.56004C11.1668 7.36671 11.1668 7.04671 11.3601 6.85338L12.7134 5.50004L11.3601 4.14671C11.1668 3.95338 11.1668 3.63338 11.3601 3.44004C11.5534 3.24671 11.8734 3.24671 12.0668 3.44004L13.7734 5.14671C13.9668 5.34004 13.9668 5.66004 13.7734 5.85338L12.0668 7.56004C11.9668 7.66004 11.8401 7.70671 11.7134 7.70671Z" fill="#393D41"/>
</svg>
