<svg width="16" height="16" viewBox="0 0 16 16" fill="none" xmlns="http://www.w3.org/2000/svg">
<path d="M10.0868 12.7067H4.75342C4.48008 12.7067 4.25342 12.48 4.25342 12.2067C4.25342 11.9334 4.48008 11.7067 4.75342 11.7067H10.0868C11.6468 11.7067 12.9201 10.4334 12.9201 8.87337C12.9201 7.31337 11.6468 6.04004 10.0868 6.04004H2.75342C2.48008 6.04004 2.25342 5.81337 2.25342 5.54004C2.25342 5.26671 2.48008 5.04004 2.75342 5.04004H10.0868C12.2001 5.04004 13.9201 6.76004 13.9201 8.87337C13.9201 10.9867 12.2001 12.7067 10.0868 12.7067Z" fill="#393D41"/>
<path d="M4.28679 7.70671C4.16012 7.70671 4.03345 7.66004 3.93345 7.56004L2.22679 5.85338C2.03345 5.66004 2.03345 5.34004 2.22679 5.14671L3.93345 3.44004C4.12679 3.24671 4.44679 3.24671 4.64012 3.44004C4.83345 3.63338 4.83345 3.95338 4.64012 4.14671L3.28679 5.50004L4.64012 6.85338C4.83345 7.04671 4.83345 7.36671 4.64012 7.56004C4.54679 7.66004 4.41345 7.70671 4.28679 7.70671Z" fill="#393D41"/>
</svg>
